<mxfile host="app.diagrams.net" agent="Mozilla/5.0 (Windows NT 10.0; Win64; x64) AppleWebKit/537.36 (KHTML, like Gecko) Chrome/131.0.0.0 Safari/537.36" version="26.0.4">
  <diagram id="C5RBs43oDa-KdzZeNtuy" name="Page-1">
    <mxGraphModel dx="8447" dy="2480" grid="1" gridSize="10" guides="1" tooltips="1" connect="1" arrows="1" fold="1" page="1" pageScale="1" pageWidth="827" pageHeight="1169" math="0" shadow="0">
      <root>
        <mxCell id="WIyWlLk6GJQsqaUBKTNV-0" />
        <mxCell id="WIyWlLk6GJQsqaUBKTNV-1" parent="WIyWlLk6GJQsqaUBKTNV-0" />
        <mxCell id="56kQNoIwS2oEXGWBTLzL-6" style="edgeStyle=orthogonalEdgeStyle;rounded=0;orthogonalLoop=1;jettySize=auto;html=1;entryX=0.5;entryY=0;entryDx=0;entryDy=0;" parent="WIyWlLk6GJQsqaUBKTNV-1" source="56kQNoIwS2oEXGWBTLzL-0" target="56kQNoIwS2oEXGWBTLzL-2" edge="1">
          <mxGeometry relative="1" as="geometry" />
        </mxCell>
        <mxCell id="56kQNoIwS2oEXGWBTLzL-0" value="Start" style="ellipse;whiteSpace=wrap;html=1;fillColor=#e5c2f5;" parent="WIyWlLk6GJQsqaUBKTNV-1" vertex="1">
          <mxGeometry x="340" y="80" width="120" height="80" as="geometry" />
        </mxCell>
        <mxCell id="56kQNoIwS2oEXGWBTLzL-7" style="edgeStyle=orthogonalEdgeStyle;rounded=0;orthogonalLoop=1;jettySize=auto;html=1;entryX=0.5;entryY=0;entryDx=0;entryDy=0;" parent="WIyWlLk6GJQsqaUBKTNV-1" source="56kQNoIwS2oEXGWBTLzL-2" target="56kQNoIwS2oEXGWBTLzL-4" edge="1">
          <mxGeometry relative="1" as="geometry" />
        </mxCell>
        <mxCell id="56kQNoIwS2oEXGWBTLzL-2" value="UserName" style="shape=parallelogram;perimeter=parallelogramPerimeter;whiteSpace=wrap;html=1;fixedSize=1;fillColor=#c9e2c9;" parent="WIyWlLk6GJQsqaUBKTNV-1" vertex="1">
          <mxGeometry x="340" y="180" width="120" height="60" as="geometry" />
        </mxCell>
        <mxCell id="56kQNoIwS2oEXGWBTLzL-8" style="edgeStyle=orthogonalEdgeStyle;rounded=0;orthogonalLoop=1;jettySize=auto;html=1;" parent="WIyWlLk6GJQsqaUBKTNV-1" source="56kQNoIwS2oEXGWBTLzL-4" edge="1">
          <mxGeometry relative="1" as="geometry">
            <mxPoint x="400" y="340" as="targetPoint" />
          </mxGeometry>
        </mxCell>
        <mxCell id="56kQNoIwS2oEXGWBTLzL-4" value="UserBalance" style="shape=parallelogram;perimeter=parallelogramPerimeter;whiteSpace=wrap;html=1;fixedSize=1;fillColor=#c9e2c9;" parent="WIyWlLk6GJQsqaUBKTNV-1" vertex="1">
          <mxGeometry x="340" y="260" width="120" height="60" as="geometry" />
        </mxCell>
        <mxCell id="56kQNoIwS2oEXGWBTLzL-11" style="edgeStyle=orthogonalEdgeStyle;rounded=0;orthogonalLoop=1;jettySize=auto;html=1;entryX=0.5;entryY=0;entryDx=0;entryDy=0;" parent="WIyWlLk6GJQsqaUBKTNV-1" source="56kQNoIwS2oEXGWBTLzL-5" target="56kQNoIwS2oEXGWBTLzL-9" edge="1">
          <mxGeometry relative="1" as="geometry" />
        </mxCell>
        <mxCell id="56kQNoIwS2oEXGWBTLzL-5" value="PlayerCount" style="shape=parallelogram;perimeter=parallelogramPerimeter;whiteSpace=wrap;html=1;fixedSize=1;fillColor=#c9e2c9;" parent="WIyWlLk6GJQsqaUBKTNV-1" vertex="1">
          <mxGeometry x="340" y="343" width="120" height="60" as="geometry" />
        </mxCell>
        <mxCell id="56kQNoIwS2oEXGWBTLzL-12" style="edgeStyle=orthogonalEdgeStyle;rounded=0;orthogonalLoop=1;jettySize=auto;html=1;" parent="WIyWlLk6GJQsqaUBKTNV-1" source="56kQNoIwS2oEXGWBTLzL-9" target="56kQNoIwS2oEXGWBTLzL-5" edge="1">
          <mxGeometry relative="1" as="geometry">
            <mxPoint x="510" y="370" as="targetPoint" />
            <Array as="points">
              <mxPoint x="511" y="470" />
              <mxPoint x="511" y="370" />
            </Array>
          </mxGeometry>
        </mxCell>
        <mxCell id="56kQNoIwS2oEXGWBTLzL-20" value="False" style="edgeLabel;html=1;align=center;verticalAlign=middle;resizable=0;points=[];" parent="56kQNoIwS2oEXGWBTLzL-12" vertex="1" connectable="0">
          <mxGeometry x="0.0025" y="-1" relative="1" as="geometry">
            <mxPoint as="offset" />
          </mxGeometry>
        </mxCell>
        <mxCell id="56kQNoIwS2oEXGWBTLzL-46" style="edgeStyle=orthogonalEdgeStyle;rounded=0;orthogonalLoop=1;jettySize=auto;html=1;entryX=0.5;entryY=0;entryDx=0;entryDy=0;" parent="WIyWlLk6GJQsqaUBKTNV-1" source="56kQNoIwS2oEXGWBTLzL-9" target="56kQNoIwS2oEXGWBTLzL-45" edge="1">
          <mxGeometry relative="1" as="geometry" />
        </mxCell>
        <mxCell id="56kQNoIwS2oEXGWBTLzL-9" value="&lt;font style=&quot;font-size: 9px;&quot;&gt;PlayerCount &amp;lt;= 6&lt;/font&gt;" style="rhombus;whiteSpace=wrap;html=1;fillColor=#f6c3c3;" parent="WIyWlLk6GJQsqaUBKTNV-1" vertex="1">
          <mxGeometry x="350" y="430" width="100" height="80" as="geometry" />
        </mxCell>
        <mxCell id="56kQNoIwS2oEXGWBTLzL-24" style="edgeStyle=orthogonalEdgeStyle;rounded=0;orthogonalLoop=1;jettySize=auto;html=1;entryX=0.5;entryY=0;entryDx=0;entryDy=0;" parent="WIyWlLk6GJQsqaUBKTNV-1" source="56kQNoIwS2oEXGWBTLzL-21" edge="1">
          <mxGeometry relative="1" as="geometry">
            <mxPoint x="400" y="800" as="targetPoint" />
          </mxGeometry>
        </mxCell>
        <mxCell id="56kQNoIwS2oEXGWBTLzL-21" value="UserBet" style="shape=parallelogram;perimeter=parallelogramPerimeter;whiteSpace=wrap;html=1;fixedSize=1;fillColor=#c9e2c9;" parent="WIyWlLk6GJQsqaUBKTNV-1" vertex="1">
          <mxGeometry x="340" y="710" width="120" height="60" as="geometry" />
        </mxCell>
        <mxCell id="56kQNoIwS2oEXGWBTLzL-26" style="edgeStyle=orthogonalEdgeStyle;rounded=0;orthogonalLoop=1;jettySize=auto;html=1;entryX=0;entryY=0.5;entryDx=0;entryDy=0;" parent="WIyWlLk6GJQsqaUBKTNV-1" source="56kQNoIwS2oEXGWBTLzL-25" target="56kQNoIwS2oEXGWBTLzL-27" edge="1">
          <mxGeometry relative="1" as="geometry">
            <mxPoint x="490" y="840" as="targetPoint" />
          </mxGeometry>
        </mxCell>
        <mxCell id="56kQNoIwS2oEXGWBTLzL-31" value="False" style="edgeLabel;html=1;align=center;verticalAlign=middle;resizable=0;points=[];" parent="56kQNoIwS2oEXGWBTLzL-26" vertex="1" connectable="0">
          <mxGeometry x="-0.4008" relative="1" as="geometry">
            <mxPoint x="16" as="offset" />
          </mxGeometry>
        </mxCell>
        <mxCell id="EgvkBxr_6u7k-jhzazxc-39" style="edgeStyle=orthogonalEdgeStyle;rounded=0;orthogonalLoop=1;jettySize=auto;html=1;entryX=0.5;entryY=0;entryDx=0;entryDy=0;" edge="1" parent="WIyWlLk6GJQsqaUBKTNV-1" source="56kQNoIwS2oEXGWBTLzL-25" target="EgvkBxr_6u7k-jhzazxc-37">
          <mxGeometry relative="1" as="geometry" />
        </mxCell>
        <mxCell id="EgvkBxr_6u7k-jhzazxc-41" value="True" style="edgeLabel;html=1;align=center;verticalAlign=middle;resizable=0;points=[];" vertex="1" connectable="0" parent="EgvkBxr_6u7k-jhzazxc-39">
          <mxGeometry x="-0.0028" y="-2" relative="1" as="geometry">
            <mxPoint as="offset" />
          </mxGeometry>
        </mxCell>
        <mxCell id="56kQNoIwS2oEXGWBTLzL-25" value="&lt;div style=&quot;text-align: start;&quot;&gt;&lt;span style=&quot;background-color: initial;&quot;&gt;&lt;div&gt;&lt;font style=&quot;font-size: 7px;&quot;&gt;UserBet&amp;gt;UserBalance&lt;/font&gt;&lt;/div&gt;&lt;/span&gt;&lt;/div&gt;" style="rhombus;whiteSpace=wrap;html=1;fillColor=#f6c3c3;" parent="WIyWlLk6GJQsqaUBKTNV-1" vertex="1">
          <mxGeometry x="350" y="800" width="100" height="80" as="geometry" />
        </mxCell>
        <mxCell id="56kQNoIwS2oEXGWBTLzL-28" style="edgeStyle=orthogonalEdgeStyle;rounded=0;orthogonalLoop=1;jettySize=auto;html=1;entryX=0.933;entryY=0.491;entryDx=0;entryDy=0;entryPerimeter=0;" parent="WIyWlLk6GJQsqaUBKTNV-1" edge="1">
          <mxGeometry relative="1" as="geometry">
            <mxPoint x="450" y="750" as="targetPoint" />
            <mxPoint x="588.04" y="820.54" as="sourcePoint" />
            <Array as="points">
              <mxPoint x="588.04" y="750.54" />
            </Array>
          </mxGeometry>
        </mxCell>
        <mxCell id="56kQNoIwS2oEXGWBTLzL-27" value="&lt;font style=&quot;font-size: 9px;&quot;&gt;&amp;nbsp;MessageBox.Show(&quot;Kérjük, adjon meg egy érvényes fogadási összeget.&quot;)&lt;/font&gt;" style="rounded=0;whiteSpace=wrap;html=1;fillColor=#fdfd9b;" parent="WIyWlLk6GJQsqaUBKTNV-1" vertex="1">
          <mxGeometry x="530" y="810" width="120" height="60" as="geometry" />
        </mxCell>
        <mxCell id="56kQNoIwS2oEXGWBTLzL-40" style="edgeStyle=orthogonalEdgeStyle;rounded=0;orthogonalLoop=1;jettySize=auto;html=1;entryX=1;entryY=0.5;entryDx=0;entryDy=0;" parent="WIyWlLk6GJQsqaUBKTNV-1" source="56kQNoIwS2oEXGWBTLzL-35" target="56kQNoIwS2oEXGWBTLzL-37" edge="1">
          <mxGeometry relative="1" as="geometry" />
        </mxCell>
        <mxCell id="56kQNoIwS2oEXGWBTLzL-42" value="False" style="edgeLabel;html=1;align=center;verticalAlign=middle;resizable=0;points=[];" parent="56kQNoIwS2oEXGWBTLzL-40" vertex="1" connectable="0">
          <mxGeometry x="-0.256" relative="1" as="geometry">
            <mxPoint x="-1" as="offset" />
          </mxGeometry>
        </mxCell>
        <mxCell id="56kQNoIwS2oEXGWBTLzL-53" style="edgeStyle=orthogonalEdgeStyle;rounded=0;orthogonalLoop=1;jettySize=auto;html=1;entryX=0.5;entryY=0;entryDx=0;entryDy=0;" parent="WIyWlLk6GJQsqaUBKTNV-1" source="56kQNoIwS2oEXGWBTLzL-35" target="56kQNoIwS2oEXGWBTLzL-48" edge="1">
          <mxGeometry relative="1" as="geometry" />
        </mxCell>
        <mxCell id="EgvkBxr_6u7k-jhzazxc-33" value="True" style="edgeLabel;html=1;align=center;verticalAlign=middle;resizable=0;points=[];" vertex="1" connectable="0" parent="56kQNoIwS2oEXGWBTLzL-53">
          <mxGeometry x="-0.0333" y="2" relative="1" as="geometry">
            <mxPoint as="offset" />
          </mxGeometry>
        </mxCell>
        <mxCell id="56kQNoIwS2oEXGWBTLzL-35" value="&lt;div style=&quot;text-align: start;&quot;&gt;&lt;span style=&quot;background-color: initial;&quot;&gt;&lt;div&gt;&lt;font style=&quot;font-size: 6px;&quot;&gt;iUserBtnType&amp;nbsp; ==&amp;nbsp; &quot;2x&quot;&lt;/font&gt;&lt;/div&gt;&lt;/span&gt;&lt;/div&gt;" style="rhombus;whiteSpace=wrap;html=1;fillColor=#f6c3c3;" parent="WIyWlLk6GJQsqaUBKTNV-1" vertex="1">
          <mxGeometry x="350" y="1140" width="100" height="80" as="geometry" />
        </mxCell>
        <mxCell id="56kQNoIwS2oEXGWBTLzL-41" style="edgeStyle=orthogonalEdgeStyle;rounded=0;orthogonalLoop=1;jettySize=auto;html=1;entryX=1;entryY=0.5;entryDx=0;entryDy=0;" parent="WIyWlLk6GJQsqaUBKTNV-1" source="56kQNoIwS2oEXGWBTLzL-37" target="56kQNoIwS2oEXGWBTLzL-38" edge="1">
          <mxGeometry relative="1" as="geometry" />
        </mxCell>
        <mxCell id="56kQNoIwS2oEXGWBTLzL-44" value="False" style="edgeLabel;html=1;align=center;verticalAlign=middle;resizable=0;points=[];" parent="56kQNoIwS2oEXGWBTLzL-41" vertex="1" connectable="0">
          <mxGeometry x="-0.144" relative="1" as="geometry">
            <mxPoint as="offset" />
          </mxGeometry>
        </mxCell>
        <mxCell id="56kQNoIwS2oEXGWBTLzL-52" style="edgeStyle=orthogonalEdgeStyle;rounded=0;orthogonalLoop=1;jettySize=auto;html=1;entryX=0.5;entryY=0;entryDx=0;entryDy=0;" parent="WIyWlLk6GJQsqaUBKTNV-1" target="56kQNoIwS2oEXGWBTLzL-49" edge="1">
          <mxGeometry relative="1" as="geometry">
            <mxPoint x="249" y="1210" as="sourcePoint" />
            <mxPoint x="247" y="1260" as="targetPoint" />
            <Array as="points">
              <mxPoint x="249" y="1260" />
              <mxPoint x="248" y="1260" />
            </Array>
          </mxGeometry>
        </mxCell>
        <mxCell id="EgvkBxr_6u7k-jhzazxc-32" value="True" style="edgeLabel;html=1;align=center;verticalAlign=middle;resizable=0;points=[];" vertex="1" connectable="0" parent="56kQNoIwS2oEXGWBTLzL-52">
          <mxGeometry x="0.1202" y="1" relative="1" as="geometry">
            <mxPoint as="offset" />
          </mxGeometry>
        </mxCell>
        <mxCell id="56kQNoIwS2oEXGWBTLzL-37" value="&lt;div style=&quot;text-align: start;&quot;&gt;&lt;font style=&quot;font-size: 6px;&quot;&gt;UserBtnType&amp;nbsp; ==&amp;nbsp; &quot;35x&quot;&lt;/font&gt;&lt;/div&gt;" style="rhombus;whiteSpace=wrap;html=1;fillColor=#f6c3c3;" parent="WIyWlLk6GJQsqaUBKTNV-1" vertex="1">
          <mxGeometry x="200" y="1140" width="100" height="80" as="geometry" />
        </mxCell>
        <mxCell id="56kQNoIwS2oEXGWBTLzL-51" style="edgeStyle=orthogonalEdgeStyle;rounded=0;orthogonalLoop=1;jettySize=auto;html=1;" parent="WIyWlLk6GJQsqaUBKTNV-1" source="56kQNoIwS2oEXGWBTLzL-38" edge="1">
          <mxGeometry relative="1" as="geometry">
            <mxPoint x="100" y="1270" as="targetPoint" />
          </mxGeometry>
        </mxCell>
        <mxCell id="EgvkBxr_6u7k-jhzazxc-31" value="True" style="edgeLabel;html=1;align=center;verticalAlign=middle;resizable=0;points=[];" vertex="1" connectable="0" parent="56kQNoIwS2oEXGWBTLzL-51">
          <mxGeometry x="0.0098" y="2" relative="1" as="geometry">
            <mxPoint y="-1" as="offset" />
          </mxGeometry>
        </mxCell>
        <mxCell id="56kQNoIwS2oEXGWBTLzL-74" style="edgeStyle=orthogonalEdgeStyle;rounded=0;orthogonalLoop=1;jettySize=auto;html=1;entryX=1;entryY=0.5;entryDx=0;entryDy=0;" parent="WIyWlLk6GJQsqaUBKTNV-1" source="56kQNoIwS2oEXGWBTLzL-38" target="56kQNoIwS2oEXGWBTLzL-69" edge="1">
          <mxGeometry relative="1" as="geometry" />
        </mxCell>
        <mxCell id="56kQNoIwS2oEXGWBTLzL-81" value="False" style="edgeLabel;html=1;align=center;verticalAlign=middle;resizable=0;points=[];" parent="56kQNoIwS2oEXGWBTLzL-74" vertex="1" connectable="0">
          <mxGeometry x="-0.101" y="-1" relative="1" as="geometry">
            <mxPoint as="offset" />
          </mxGeometry>
        </mxCell>
        <mxCell id="56kQNoIwS2oEXGWBTLzL-38" value="&lt;div style=&quot;text-align: start;&quot;&gt;&lt;span style=&quot;background-color: initial;&quot;&gt;&lt;div&gt;&lt;font style=&quot;font-size: 6px;&quot;&gt;iUserBtnType&amp;nbsp; ==&amp;nbsp; &quot;1to12&lt;/font&gt;&lt;/div&gt;&lt;/span&gt;&lt;/div&gt;" style="rhombus;whiteSpace=wrap;html=1;fillColor=#f6c3c3;" parent="WIyWlLk6GJQsqaUBKTNV-1" vertex="1">
          <mxGeometry x="50" y="1140" width="100" height="80" as="geometry" />
        </mxCell>
        <mxCell id="EgvkBxr_6u7k-jhzazxc-2" style="edgeStyle=orthogonalEdgeStyle;rounded=0;orthogonalLoop=1;jettySize=auto;html=1;" edge="1" parent="WIyWlLk6GJQsqaUBKTNV-1" source="56kQNoIwS2oEXGWBTLzL-45">
          <mxGeometry relative="1" as="geometry">
            <mxPoint x="400" y="620" as="targetPoint" />
          </mxGeometry>
        </mxCell>
        <mxCell id="56kQNoIwS2oEXGWBTLzL-45" value="&lt;font style=&quot;font-size: 10px;&quot;&gt;List&amp;lt;&lt;span style=&quot;&quot; class=&quot;hljs-built_in&quot;&gt;string&lt;/span&gt;&amp;gt; Odds = &lt;span style=&quot;&quot; class=&quot;hljs-keyword&quot;&gt;new&amp;nbsp;&lt;/span&gt;List&amp;lt;&lt;span style=&quot;&quot; class=&quot;hljs-built_in&quot;&gt;string&lt;/span&gt;&amp;gt;();&amp;nbsp;&lt;/font&gt;" style="rounded=0;whiteSpace=wrap;html=1;fillColor=#fdfd9b;" parent="WIyWlLk6GJQsqaUBKTNV-1" vertex="1">
          <mxGeometry x="340" y="530" width="120" height="60" as="geometry" />
        </mxCell>
        <mxCell id="EgvkBxr_6u7k-jhzazxc-8" style="edgeStyle=orthogonalEdgeStyle;rounded=0;orthogonalLoop=1;jettySize=auto;html=1;" edge="1" parent="WIyWlLk6GJQsqaUBKTNV-1" target="56kQNoIwS2oEXGWBTLzL-54">
          <mxGeometry relative="1" as="geometry">
            <mxPoint x="390" y="1490" as="targetPoint" />
            <mxPoint x="399.5" y="1330" as="sourcePoint" />
            <Array as="points">
              <mxPoint x="400" y="1410" />
              <mxPoint x="400" y="1410" />
              <mxPoint x="400" y="1490" />
            </Array>
          </mxGeometry>
        </mxCell>
        <mxCell id="56kQNoIwS2oEXGWBTLzL-48" value="&lt;span style=&quot;font-size: 9px;&quot;&gt;Odds.Add(&lt;/span&gt;&lt;span style=&quot;font-size: 9px;&quot; class=&quot;hljs-string&quot;&gt;&quot;2x&quot;&lt;/span&gt;&lt;span style=&quot;font-size: 9px;&quot;&gt;);&lt;/span&gt;" style="rounded=0;whiteSpace=wrap;html=1;fillColor=#fdfd9b;" parent="WIyWlLk6GJQsqaUBKTNV-1" vertex="1">
          <mxGeometry x="340" y="1270" width="120" height="60" as="geometry" />
        </mxCell>
        <mxCell id="EgvkBxr_6u7k-jhzazxc-9" style="edgeStyle=orthogonalEdgeStyle;rounded=0;orthogonalLoop=1;jettySize=auto;html=1;entryX=0.5;entryY=0;entryDx=0;entryDy=0;" edge="1" parent="WIyWlLk6GJQsqaUBKTNV-1" source="56kQNoIwS2oEXGWBTLzL-49" target="56kQNoIwS2oEXGWBTLzL-54">
          <mxGeometry relative="1" as="geometry">
            <Array as="points">
              <mxPoint x="242" y="1370" />
              <mxPoint x="242" y="1370" />
            </Array>
          </mxGeometry>
        </mxCell>
        <mxCell id="56kQNoIwS2oEXGWBTLzL-49" value="&lt;span style=&quot;font-size: 9px;&quot;&gt;Odds.Add(&lt;/span&gt;&lt;span style=&quot;font-size: 9px;&quot; class=&quot;hljs-string&quot;&gt;&quot;35x&quot;&lt;/span&gt;&lt;span style=&quot;font-size: 9px;&quot;&gt;);&lt;/span&gt;" style="rounded=0;whiteSpace=wrap;html=1;fillColor=#fdfd9b;" parent="WIyWlLk6GJQsqaUBKTNV-1" vertex="1">
          <mxGeometry x="188" y="1270" width="120" height="60" as="geometry" />
        </mxCell>
        <mxCell id="56kQNoIwS2oEXGWBTLzL-59" style="edgeStyle=orthogonalEdgeStyle;rounded=0;orthogonalLoop=1;jettySize=auto;html=1;exitX=1;exitY=0.5;exitDx=0;exitDy=0;" parent="WIyWlLk6GJQsqaUBKTNV-1" target="56kQNoIwS2oEXGWBTLzL-21" edge="1" source="56kQNoIwS2oEXGWBTLzL-54">
          <mxGeometry relative="1" as="geometry">
            <mxPoint x="520" y="726" as="targetPoint" />
            <mxPoint x="292" y="1390" as="sourcePoint" />
            <Array as="points">
              <mxPoint x="664" y="1530" />
              <mxPoint x="664" y="740" />
            </Array>
          </mxGeometry>
        </mxCell>
        <mxCell id="56kQNoIwS2oEXGWBTLzL-54" value="&lt;font style=&quot;font-size: 10px;&quot;&gt;UserStart (click)&lt;/font&gt;" style="rhombus;whiteSpace=wrap;html=1;fillColor=#f6c3c3;" parent="WIyWlLk6GJQsqaUBKTNV-1" vertex="1">
          <mxGeometry x="192" y="1490" width="100" height="80" as="geometry" />
        </mxCell>
        <mxCell id="56kQNoIwS2oEXGWBTLzL-64" style="edgeStyle=orthogonalEdgeStyle;rounded=0;orthogonalLoop=1;jettySize=auto;html=1;" parent="WIyWlLk6GJQsqaUBKTNV-1" source="56kQNoIwS2oEXGWBTLzL-63" edge="1">
          <mxGeometry relative="1" as="geometry">
            <mxPoint x="237.99999999999977" y="1720" as="targetPoint" />
          </mxGeometry>
        </mxCell>
        <mxCell id="56kQNoIwS2oEXGWBTLzL-63" value="&lt;font style=&quot;font-size: 7px;&quot;&gt;Random random = &lt;span style=&quot;&quot; class=&quot;hljs-keyword&quot;&gt;new&lt;/span&gt; Random();&amp;nbsp;&lt;/font&gt;" style="rounded=0;whiteSpace=wrap;html=1;fillColor=#fdfd9b;" parent="WIyWlLk6GJQsqaUBKTNV-1" vertex="1">
          <mxGeometry x="178" y="1640" width="120" height="60" as="geometry" />
        </mxCell>
        <mxCell id="56kQNoIwS2oEXGWBTLzL-68" style="edgeStyle=orthogonalEdgeStyle;rounded=0;orthogonalLoop=1;jettySize=auto;html=1;entryX=0.5;entryY=0;entryDx=0;entryDy=0;" parent="WIyWlLk6GJQsqaUBKTNV-1" source="56kQNoIwS2oEXGWBTLzL-66" target="56kQNoIwS2oEXGWBTLzL-67" edge="1">
          <mxGeometry relative="1" as="geometry" />
        </mxCell>
        <mxCell id="56kQNoIwS2oEXGWBTLzL-66" value="&lt;font style=&quot;&quot;&gt;&lt;span style=&quot;font-size: 6px; text-align: left;&quot; class=&quot;hljs-built_in&quot;&gt;int&lt;/span&gt;&lt;span style=&quot;text-align: left;&quot;&gt;&lt;span style=&quot;font-size: 6px;&quot;&gt;&amp;nbsp;winningNumber&amp;nbsp;= random.Next(&lt;/span&gt;&lt;/span&gt;&lt;span style=&quot;font-size: 6px; text-align: left;&quot; class=&quot;hljs-number&quot;&gt;0&lt;/span&gt;&lt;span style=&quot;font-size: 6px; text-align: left;&quot;&gt;,&amp;nbsp;&lt;/span&gt;&lt;span style=&quot;font-size: 6px; text-align: left;&quot; class=&quot;hljs-number&quot;&gt;37&lt;/span&gt;&lt;span style=&quot;font-size: 6px; text-align: left;&quot;&gt;);&lt;/span&gt;&lt;/font&gt;" style="rounded=0;whiteSpace=wrap;html=1;fillColor=#fdfd9b;" parent="WIyWlLk6GJQsqaUBKTNV-1" vertex="1">
          <mxGeometry x="180" y="1720" width="120" height="60" as="geometry" />
        </mxCell>
        <mxCell id="EgvkBxr_6u7k-jhzazxc-49" style="edgeStyle=orthogonalEdgeStyle;rounded=0;orthogonalLoop=1;jettySize=auto;html=1;entryX=0;entryY=0.5;entryDx=0;entryDy=0;" edge="1" parent="WIyWlLk6GJQsqaUBKTNV-1" source="56kQNoIwS2oEXGWBTLzL-67" target="EgvkBxr_6u7k-jhzazxc-50">
          <mxGeometry relative="1" as="geometry">
            <mxPoint x="330" y="1860" as="targetPoint" />
          </mxGeometry>
        </mxCell>
        <mxCell id="EgvkBxr_6u7k-jhzazxc-55" value="False" style="edgeLabel;html=1;align=center;verticalAlign=middle;resizable=0;points=[];" vertex="1" connectable="0" parent="EgvkBxr_6u7k-jhzazxc-49">
          <mxGeometry x="-0.56" y="3" relative="1" as="geometry">
            <mxPoint x="9" y="3" as="offset" />
          </mxGeometry>
        </mxCell>
        <mxCell id="56kQNoIwS2oEXGWBTLzL-67" value="&lt;span style=&quot;font-size: 6px; text-align: left;&quot;&gt;winningNumber == Odds&lt;/span&gt;" style="rhombus;whiteSpace=wrap;html=1;fillColor=#f6c3c3;" parent="WIyWlLk6GJQsqaUBKTNV-1" vertex="1">
          <mxGeometry x="190" y="1820" width="100" height="80" as="geometry" />
        </mxCell>
        <mxCell id="56kQNoIwS2oEXGWBTLzL-77" style="edgeStyle=orthogonalEdgeStyle;rounded=0;orthogonalLoop=1;jettySize=auto;html=1;" parent="WIyWlLk6GJQsqaUBKTNV-1" source="56kQNoIwS2oEXGWBTLzL-69" target="56kQNoIwS2oEXGWBTLzL-70" edge="1">
          <mxGeometry relative="1" as="geometry" />
        </mxCell>
        <mxCell id="56kQNoIwS2oEXGWBTLzL-82" value="False" style="edgeLabel;html=1;align=center;verticalAlign=middle;resizable=0;points=[];" parent="56kQNoIwS2oEXGWBTLzL-77" vertex="1" connectable="0">
          <mxGeometry x="-0.3676" y="-1" relative="1" as="geometry">
            <mxPoint x="-4" y="1" as="offset" />
          </mxGeometry>
        </mxCell>
        <mxCell id="56kQNoIwS2oEXGWBTLzL-93" style="edgeStyle=orthogonalEdgeStyle;rounded=0;orthogonalLoop=1;jettySize=auto;html=1;entryX=0.5;entryY=0;entryDx=0;entryDy=0;" parent="WIyWlLk6GJQsqaUBKTNV-1" source="56kQNoIwS2oEXGWBTLzL-69" target="56kQNoIwS2oEXGWBTLzL-87" edge="1">
          <mxGeometry relative="1" as="geometry" />
        </mxCell>
        <mxCell id="EgvkBxr_6u7k-jhzazxc-30" value="True" style="edgeLabel;html=1;align=center;verticalAlign=middle;resizable=0;points=[];" vertex="1" connectable="0" parent="56kQNoIwS2oEXGWBTLzL-93">
          <mxGeometry x="-0.0333" y="2" relative="1" as="geometry">
            <mxPoint as="offset" />
          </mxGeometry>
        </mxCell>
        <mxCell id="56kQNoIwS2oEXGWBTLzL-69" value="&lt;div style=&quot;text-align: start;&quot;&gt;&lt;span style=&quot;background-color: initial;&quot;&gt;&lt;div&gt;&lt;font style=&quot;font-size: 6px;&quot;&gt;UserBtnType&amp;nbsp; ==&amp;nbsp; &quot;13to24&quot;&lt;/font&gt;&lt;/div&gt;&lt;/span&gt;&lt;/div&gt;" style="rhombus;whiteSpace=wrap;html=1;fillColor=#f6c3c3;" parent="WIyWlLk6GJQsqaUBKTNV-1" vertex="1">
          <mxGeometry x="-100" y="1140" width="100" height="80" as="geometry" />
        </mxCell>
        <mxCell id="56kQNoIwS2oEXGWBTLzL-78" style="edgeStyle=orthogonalEdgeStyle;rounded=0;orthogonalLoop=1;jettySize=auto;html=1;entryX=1;entryY=0.5;entryDx=0;entryDy=0;" parent="WIyWlLk6GJQsqaUBKTNV-1" source="56kQNoIwS2oEXGWBTLzL-70" target="56kQNoIwS2oEXGWBTLzL-71" edge="1">
          <mxGeometry relative="1" as="geometry" />
        </mxCell>
        <mxCell id="56kQNoIwS2oEXGWBTLzL-83" value="False" style="edgeLabel;html=1;align=center;verticalAlign=middle;resizable=0;points=[];" parent="56kQNoIwS2oEXGWBTLzL-78" vertex="1" connectable="0">
          <mxGeometry x="0.264" y="-2" relative="1" as="geometry">
            <mxPoint x="12" y="2" as="offset" />
          </mxGeometry>
        </mxCell>
        <mxCell id="56kQNoIwS2oEXGWBTLzL-97" style="edgeStyle=orthogonalEdgeStyle;rounded=0;orthogonalLoop=1;jettySize=auto;html=1;entryX=0.5;entryY=0;entryDx=0;entryDy=0;" parent="WIyWlLk6GJQsqaUBKTNV-1" source="56kQNoIwS2oEXGWBTLzL-70" target="56kQNoIwS2oEXGWBTLzL-88" edge="1">
          <mxGeometry relative="1" as="geometry" />
        </mxCell>
        <mxCell id="EgvkBxr_6u7k-jhzazxc-29" value="True" style="edgeLabel;html=1;align=center;verticalAlign=middle;resizable=0;points=[];" vertex="1" connectable="0" parent="56kQNoIwS2oEXGWBTLzL-97">
          <mxGeometry x="0.0333" y="1" relative="1" as="geometry">
            <mxPoint as="offset" />
          </mxGeometry>
        </mxCell>
        <mxCell id="56kQNoIwS2oEXGWBTLzL-70" value="&lt;div style=&quot;text-align: start;&quot;&gt;&lt;span style=&quot;background-color: initial;&quot;&gt;&lt;div&gt;&lt;font style=&quot;font-size: 6px;&quot;&gt;UserBtnType&amp;nbsp; ==&amp;nbsp; &quot;25to36&quot;&lt;/font&gt;&lt;/div&gt;&lt;/span&gt;&lt;/div&gt;" style="rhombus;whiteSpace=wrap;html=1;fillColor=#f6c3c3;" parent="WIyWlLk6GJQsqaUBKTNV-1" vertex="1">
          <mxGeometry x="-250" y="1140" width="100" height="80" as="geometry" />
        </mxCell>
        <mxCell id="56kQNoIwS2oEXGWBTLzL-79" style="edgeStyle=orthogonalEdgeStyle;rounded=0;orthogonalLoop=1;jettySize=auto;html=1;entryX=1;entryY=0.5;entryDx=0;entryDy=0;" parent="WIyWlLk6GJQsqaUBKTNV-1" source="56kQNoIwS2oEXGWBTLzL-71" target="56kQNoIwS2oEXGWBTLzL-72" edge="1">
          <mxGeometry relative="1" as="geometry" />
        </mxCell>
        <mxCell id="56kQNoIwS2oEXGWBTLzL-84" value="False" style="edgeLabel;html=1;align=center;verticalAlign=middle;resizable=0;points=[];" parent="56kQNoIwS2oEXGWBTLzL-79" vertex="1" connectable="0">
          <mxGeometry x="0.28" relative="1" as="geometry">
            <mxPoint x="12" as="offset" />
          </mxGeometry>
        </mxCell>
        <mxCell id="56kQNoIwS2oEXGWBTLzL-96" style="edgeStyle=orthogonalEdgeStyle;rounded=0;orthogonalLoop=1;jettySize=auto;html=1;entryX=0.5;entryY=0;entryDx=0;entryDy=0;" parent="WIyWlLk6GJQsqaUBKTNV-1" source="56kQNoIwS2oEXGWBTLzL-71" target="56kQNoIwS2oEXGWBTLzL-89" edge="1">
          <mxGeometry relative="1" as="geometry" />
        </mxCell>
        <mxCell id="EgvkBxr_6u7k-jhzazxc-27" value="True" style="edgeLabel;html=1;align=center;verticalAlign=middle;resizable=0;points=[];" vertex="1" connectable="0" parent="56kQNoIwS2oEXGWBTLzL-96">
          <mxGeometry x="-0.1" relative="1" as="geometry">
            <mxPoint as="offset" />
          </mxGeometry>
        </mxCell>
        <mxCell id="56kQNoIwS2oEXGWBTLzL-71" value="&lt;div style=&quot;text-align: start;&quot;&gt;&lt;span style=&quot;background-color: initial;&quot;&gt;&lt;div&gt;&lt;font style=&quot;font-size: 6px;&quot;&gt;UserBtnType&amp;nbsp; ==&amp;nbsp; &quot;1to34&quot;&lt;/font&gt;&lt;/div&gt;&lt;/span&gt;&lt;/div&gt;" style="rhombus;whiteSpace=wrap;html=1;fillColor=#f6c3c3;" parent="WIyWlLk6GJQsqaUBKTNV-1" vertex="1">
          <mxGeometry x="-400" y="1140" width="100" height="80" as="geometry" />
        </mxCell>
        <mxCell id="56kQNoIwS2oEXGWBTLzL-80" style="edgeStyle=orthogonalEdgeStyle;rounded=0;orthogonalLoop=1;jettySize=auto;html=1;entryX=1;entryY=0.5;entryDx=0;entryDy=0;" parent="WIyWlLk6GJQsqaUBKTNV-1" source="56kQNoIwS2oEXGWBTLzL-72" edge="1">
          <mxGeometry relative="1" as="geometry">
            <mxPoint x="-610" y="1180" as="targetPoint" />
          </mxGeometry>
        </mxCell>
        <mxCell id="56kQNoIwS2oEXGWBTLzL-85" value="False" style="edgeLabel;html=1;align=center;verticalAlign=middle;resizable=0;points=[];" parent="56kQNoIwS2oEXGWBTLzL-80" vertex="1" connectable="0">
          <mxGeometry x="0.28" y="-1" relative="1" as="geometry">
            <mxPoint x="8" y="1" as="offset" />
          </mxGeometry>
        </mxCell>
        <mxCell id="56kQNoIwS2oEXGWBTLzL-95" style="edgeStyle=orthogonalEdgeStyle;rounded=0;orthogonalLoop=1;jettySize=auto;html=1;entryX=0.5;entryY=0;entryDx=0;entryDy=0;" parent="WIyWlLk6GJQsqaUBKTNV-1" source="56kQNoIwS2oEXGWBTLzL-72" target="56kQNoIwS2oEXGWBTLzL-90" edge="1">
          <mxGeometry relative="1" as="geometry" />
        </mxCell>
        <mxCell id="EgvkBxr_6u7k-jhzazxc-26" value="True" style="edgeLabel;html=1;align=center;verticalAlign=middle;resizable=0;points=[];" vertex="1" connectable="0" parent="56kQNoIwS2oEXGWBTLzL-95">
          <mxGeometry x="-0.1667" y="4" relative="1" as="geometry">
            <mxPoint x="-4" as="offset" />
          </mxGeometry>
        </mxCell>
        <mxCell id="56kQNoIwS2oEXGWBTLzL-72" value="&lt;div style=&quot;text-align: start;&quot;&gt;&lt;span style=&quot;background-color: initial;&quot;&gt;&lt;div&gt;&lt;font style=&quot;font-size: 6px;&quot;&gt;UserBtnType&amp;nbsp; ==&amp;nbsp; &quot;2to35&quot;&lt;/font&gt;&lt;/div&gt;&lt;/span&gt;&lt;/div&gt;" style="rhombus;whiteSpace=wrap;html=1;fillColor=#f6c3c3;" parent="WIyWlLk6GJQsqaUBKTNV-1" vertex="1">
          <mxGeometry x="-550" y="1140" width="100" height="80" as="geometry" />
        </mxCell>
        <mxCell id="56kQNoIwS2oEXGWBTLzL-94" style="edgeStyle=orthogonalEdgeStyle;rounded=0;orthogonalLoop=1;jettySize=auto;html=1;entryX=0.5;entryY=0;entryDx=0;entryDy=0;" parent="WIyWlLk6GJQsqaUBKTNV-1" edge="1">
          <mxGeometry relative="1" as="geometry">
            <mxPoint x="-660" y="1220" as="sourcePoint" />
            <mxPoint x="-660" y="1270" as="targetPoint" />
          </mxGeometry>
        </mxCell>
        <mxCell id="EgvkBxr_6u7k-jhzazxc-24" value="True" style="edgeLabel;html=1;align=center;verticalAlign=middle;resizable=0;points=[];" vertex="1" connectable="0" parent="56kQNoIwS2oEXGWBTLzL-94">
          <mxGeometry x="-0.1667" y="1" relative="1" as="geometry">
            <mxPoint as="offset" />
          </mxGeometry>
        </mxCell>
        <mxCell id="56kQNoIwS2oEXGWBTLzL-73" value="&lt;div style=&quot;text-align: start;&quot;&gt;&lt;span style=&quot;background-color: initial;&quot;&gt;&lt;div&gt;&lt;font style=&quot;font-size: 6px;&quot;&gt;UserBtnType&amp;nbsp; ==&amp;nbsp; &quot;3to36&quot;&lt;/font&gt;&lt;/div&gt;&lt;/span&gt;&lt;/div&gt;" style="rhombus;whiteSpace=wrap;html=1;fillColor=#f6c3c3;" parent="WIyWlLk6GJQsqaUBKTNV-1" vertex="1">
          <mxGeometry x="-710" y="1140" width="100" height="80" as="geometry" />
        </mxCell>
        <mxCell id="56kQNoIwS2oEXGWBTLzL-86" value="&lt;span style=&quot;font-size: 9px;&quot;&gt;Odds.Add(&lt;/span&gt;&lt;span style=&quot;font-size: 9px;&quot; class=&quot;hljs-string&quot;&gt;&quot;1to12&quot;&lt;/span&gt;&lt;span style=&quot;font-size: 9px;&quot;&gt;);&lt;/span&gt;" style="rounded=0;whiteSpace=wrap;html=1;fillColor=#fdfd9b;" parent="WIyWlLk6GJQsqaUBKTNV-1" vertex="1">
          <mxGeometry x="40" y="1270" width="120" height="60" as="geometry" />
        </mxCell>
        <mxCell id="EgvkBxr_6u7k-jhzazxc-14" style="edgeStyle=orthogonalEdgeStyle;rounded=0;orthogonalLoop=1;jettySize=auto;html=1;entryX=0.48;entryY=0;entryDx=0;entryDy=0;entryPerimeter=0;" edge="1" parent="WIyWlLk6GJQsqaUBKTNV-1" source="56kQNoIwS2oEXGWBTLzL-87" target="56kQNoIwS2oEXGWBTLzL-54">
          <mxGeometry relative="1" as="geometry">
            <mxPoint x="190" y="1490" as="targetPoint" />
            <Array as="points">
              <mxPoint x="-50" y="1490" />
            </Array>
          </mxGeometry>
        </mxCell>
        <mxCell id="56kQNoIwS2oEXGWBTLzL-87" value="&lt;span style=&quot;font-size: 9px;&quot;&gt;Odds.Add(&lt;/span&gt;&lt;span style=&quot;font-size: 9px;&quot; class=&quot;hljs-string&quot;&gt;&quot;13to24&quot;&lt;/span&gt;&lt;span style=&quot;font-size: 9px;&quot;&gt;);&lt;/span&gt;" style="rounded=0;whiteSpace=wrap;html=1;fillColor=#fdfd9b;" parent="WIyWlLk6GJQsqaUBKTNV-1" vertex="1">
          <mxGeometry x="-110" y="1270" width="120" height="60" as="geometry" />
        </mxCell>
        <mxCell id="56kQNoIwS2oEXGWBTLzL-88" value="&lt;span style=&quot;font-size: 9px;&quot;&gt;Odds.Add(&lt;/span&gt;&lt;span style=&quot;font-size: 9px;&quot; class=&quot;hljs-string&quot;&gt;&quot;25to36&quot;&lt;/span&gt;&lt;span style=&quot;font-size: 9px;&quot;&gt;);&lt;/span&gt;" style="rounded=0;whiteSpace=wrap;html=1;fillColor=#fdfd9b;" parent="WIyWlLk6GJQsqaUBKTNV-1" vertex="1">
          <mxGeometry x="-260" y="1270" width="120" height="60" as="geometry" />
        </mxCell>
        <mxCell id="56kQNoIwS2oEXGWBTLzL-89" value="&lt;span style=&quot;font-size: 9px;&quot;&gt;Odds.Add(&lt;/span&gt;&lt;span style=&quot;font-size: 9px;&quot; class=&quot;hljs-string&quot;&gt;&quot;1to34&quot;&lt;/span&gt;&lt;span style=&quot;font-size: 9px;&quot;&gt;);&lt;/span&gt;" style="rounded=0;whiteSpace=wrap;html=1;fillColor=#fdfd9b;" parent="WIyWlLk6GJQsqaUBKTNV-1" vertex="1">
          <mxGeometry x="-410" y="1270" width="120" height="60" as="geometry" />
        </mxCell>
        <mxCell id="56kQNoIwS2oEXGWBTLzL-90" value="&lt;span style=&quot;font-size: 9px;&quot;&gt;Odds.Add(&lt;/span&gt;&lt;span style=&quot;font-size: 9px;&quot; class=&quot;hljs-string&quot;&gt;&quot;2to35&quot;&lt;/span&gt;&lt;span style=&quot;font-size: 9px;&quot;&gt;);&lt;/span&gt;" style="rounded=0;whiteSpace=wrap;html=1;fillColor=#fdfd9b;" parent="WIyWlLk6GJQsqaUBKTNV-1" vertex="1">
          <mxGeometry x="-560" y="1270" width="120" height="60" as="geometry" />
        </mxCell>
        <mxCell id="56kQNoIwS2oEXGWBTLzL-91" value="&lt;span style=&quot;font-size: 9px;&quot;&gt;Odds.Add(&lt;/span&gt;&lt;span style=&quot;font-size: 9px;&quot; class=&quot;hljs-string&quot;&gt;&quot;3to36&quot;&lt;/span&gt;&lt;span style=&quot;font-size: 9px;&quot;&gt;);&lt;/span&gt;" style="rounded=0;whiteSpace=wrap;html=1;fillColor=#fdfd9b;" parent="WIyWlLk6GJQsqaUBKTNV-1" vertex="1">
          <mxGeometry x="-720" y="1270" width="120" height="60" as="geometry" />
        </mxCell>
        <mxCell id="EgvkBxr_6u7k-jhzazxc-1" style="edgeStyle=orthogonalEdgeStyle;rounded=0;orthogonalLoop=1;jettySize=auto;html=1;entryX=0.5;entryY=0;entryDx=0;entryDy=0;" edge="1" parent="WIyWlLk6GJQsqaUBKTNV-1" source="EgvkBxr_6u7k-jhzazxc-0" target="56kQNoIwS2oEXGWBTLzL-21">
          <mxGeometry relative="1" as="geometry" />
        </mxCell>
        <mxCell id="EgvkBxr_6u7k-jhzazxc-0" value="&lt;font style=&quot;font-size: 10px;&quot;&gt;List&amp;lt;int&amp;gt; UserBets = &lt;span style=&quot;&quot; class=&quot;hljs-keyword&quot;&gt;new&amp;nbsp;&lt;/span&gt;List&amp;lt;int&amp;gt;();&amp;nbsp;&lt;/font&gt;" style="rounded=0;whiteSpace=wrap;html=1;fillColor=#fdfd9b;" vertex="1" parent="WIyWlLk6GJQsqaUBKTNV-1">
          <mxGeometry x="340" y="625" width="120" height="60" as="geometry" />
        </mxCell>
        <mxCell id="EgvkBxr_6u7k-jhzazxc-5" style="edgeStyle=orthogonalEdgeStyle;rounded=0;orthogonalLoop=1;jettySize=auto;html=1;" edge="1" parent="WIyWlLk6GJQsqaUBKTNV-1" source="EgvkBxr_6u7k-jhzazxc-3" target="56kQNoIwS2oEXGWBTLzL-35">
          <mxGeometry relative="1" as="geometry" />
        </mxCell>
        <mxCell id="EgvkBxr_6u7k-jhzazxc-3" value="&lt;span style=&quot;font-size: 9px;&quot;&gt;UserBets.Add(UserBet&lt;/span&gt;&lt;span style=&quot;font-size: 9px;&quot;&gt;);&lt;/span&gt;" style="rounded=0;whiteSpace=wrap;html=1;fillColor=#fdfd9b;" vertex="1" parent="WIyWlLk6GJQsqaUBKTNV-1">
          <mxGeometry x="340" y="1020" width="120" height="60" as="geometry" />
        </mxCell>
        <mxCell id="EgvkBxr_6u7k-jhzazxc-16" value="" style="endArrow=none;html=1;rounded=0;entryX=0.5;entryY=1;entryDx=0;entryDy=0;" edge="1" parent="WIyWlLk6GJQsqaUBKTNV-1" target="56kQNoIwS2oEXGWBTLzL-86">
          <mxGeometry width="50" height="50" relative="1" as="geometry">
            <mxPoint x="100" y="1490" as="sourcePoint" />
            <mxPoint x="160" y="1390" as="targetPoint" />
          </mxGeometry>
        </mxCell>
        <mxCell id="EgvkBxr_6u7k-jhzazxc-17" value="" style="endArrow=none;html=1;rounded=0;entryX=0.5;entryY=1;entryDx=0;entryDy=0;" edge="1" parent="WIyWlLk6GJQsqaUBKTNV-1" target="56kQNoIwS2oEXGWBTLzL-88">
          <mxGeometry width="50" height="50" relative="1" as="geometry">
            <mxPoint x="-50" y="1490" as="sourcePoint" />
            <mxPoint x="50" y="1370" as="targetPoint" />
            <Array as="points">
              <mxPoint x="-200" y="1490" />
            </Array>
          </mxGeometry>
        </mxCell>
        <mxCell id="EgvkBxr_6u7k-jhzazxc-18" value="" style="endArrow=none;html=1;rounded=0;entryX=0.5;entryY=1;entryDx=0;entryDy=0;" edge="1" parent="WIyWlLk6GJQsqaUBKTNV-1" target="56kQNoIwS2oEXGWBTLzL-89">
          <mxGeometry width="50" height="50" relative="1" as="geometry">
            <mxPoint x="-200" y="1490" as="sourcePoint" />
            <mxPoint x="-150" y="1380" as="targetPoint" />
            <Array as="points">
              <mxPoint x="-350" y="1490" />
            </Array>
          </mxGeometry>
        </mxCell>
        <mxCell id="EgvkBxr_6u7k-jhzazxc-19" value="" style="endArrow=none;html=1;rounded=0;entryX=0.5;entryY=1;entryDx=0;entryDy=0;" edge="1" parent="WIyWlLk6GJQsqaUBKTNV-1" target="56kQNoIwS2oEXGWBTLzL-90">
          <mxGeometry width="50" height="50" relative="1" as="geometry">
            <mxPoint x="-350" y="1490" as="sourcePoint" />
            <mxPoint x="-150" y="1380" as="targetPoint" />
            <Array as="points">
              <mxPoint x="-500" y="1490" />
            </Array>
          </mxGeometry>
        </mxCell>
        <mxCell id="EgvkBxr_6u7k-jhzazxc-20" value="" style="endArrow=none;html=1;rounded=0;entryX=0.5;entryY=1;entryDx=0;entryDy=0;" edge="1" parent="WIyWlLk6GJQsqaUBKTNV-1" target="56kQNoIwS2oEXGWBTLzL-91">
          <mxGeometry width="50" height="50" relative="1" as="geometry">
            <mxPoint x="-500" y="1490" as="sourcePoint" />
            <mxPoint x="-200" y="1360" as="targetPoint" />
            <Array as="points">
              <mxPoint x="-660" y="1490" />
            </Array>
          </mxGeometry>
        </mxCell>
        <mxCell id="EgvkBxr_6u7k-jhzazxc-21" style="edgeStyle=orthogonalEdgeStyle;rounded=0;orthogonalLoop=1;jettySize=auto;html=1;entryX=0.536;entryY=0.011;entryDx=0;entryDy=0;entryPerimeter=0;" edge="1" parent="WIyWlLk6GJQsqaUBKTNV-1" source="56kQNoIwS2oEXGWBTLzL-54" target="56kQNoIwS2oEXGWBTLzL-63">
          <mxGeometry relative="1" as="geometry" />
        </mxCell>
        <mxCell id="EgvkBxr_6u7k-jhzazxc-22" value="True" style="edgeLabel;html=1;align=center;verticalAlign=middle;resizable=0;points=[];" vertex="1" connectable="0" parent="EgvkBxr_6u7k-jhzazxc-21">
          <mxGeometry x="-0.0981" y="2" relative="1" as="geometry">
            <mxPoint as="offset" />
          </mxGeometry>
        </mxCell>
        <mxCell id="EgvkBxr_6u7k-jhzazxc-43" style="edgeStyle=orthogonalEdgeStyle;rounded=0;orthogonalLoop=1;jettySize=auto;html=1;entryX=0.5;entryY=0;entryDx=0;entryDy=0;" edge="1" parent="WIyWlLk6GJQsqaUBKTNV-1" source="EgvkBxr_6u7k-jhzazxc-34" target="EgvkBxr_6u7k-jhzazxc-42">
          <mxGeometry relative="1" as="geometry" />
        </mxCell>
        <mxCell id="EgvkBxr_6u7k-jhzazxc-34" value="&lt;div style=&quot;text-align: left;&quot;&gt;&lt;span style=&quot;font-size: 6px;&quot;&gt;UserBalance = Odds * UserBet&amp;nbsp;&lt;/span&gt;&lt;/div&gt;" style="rounded=0;whiteSpace=wrap;html=1;fillColor=#fdfd9b;" vertex="1" parent="WIyWlLk6GJQsqaUBKTNV-1">
          <mxGeometry x="178" y="1930" width="120" height="60" as="geometry" />
        </mxCell>
        <mxCell id="EgvkBxr_6u7k-jhzazxc-36" style="edgeStyle=orthogonalEdgeStyle;rounded=0;orthogonalLoop=1;jettySize=auto;html=1;entryX=0.517;entryY=0;entryDx=0;entryDy=0;entryPerimeter=0;" edge="1" parent="WIyWlLk6GJQsqaUBKTNV-1" source="56kQNoIwS2oEXGWBTLzL-67" target="EgvkBxr_6u7k-jhzazxc-34">
          <mxGeometry relative="1" as="geometry" />
        </mxCell>
        <mxCell id="EgvkBxr_6u7k-jhzazxc-54" value="True" style="edgeLabel;html=1;align=center;verticalAlign=middle;resizable=0;points=[];" vertex="1" connectable="0" parent="EgvkBxr_6u7k-jhzazxc-36">
          <mxGeometry x="-0.6998" y="1" relative="1" as="geometry">
            <mxPoint as="offset" />
          </mxGeometry>
        </mxCell>
        <mxCell id="EgvkBxr_6u7k-jhzazxc-40" style="edgeStyle=orthogonalEdgeStyle;rounded=0;orthogonalLoop=1;jettySize=auto;html=1;entryX=0.5;entryY=0;entryDx=0;entryDy=0;" edge="1" parent="WIyWlLk6GJQsqaUBKTNV-1" source="EgvkBxr_6u7k-jhzazxc-37" target="EgvkBxr_6u7k-jhzazxc-3">
          <mxGeometry relative="1" as="geometry" />
        </mxCell>
        <mxCell id="EgvkBxr_6u7k-jhzazxc-37" value="&lt;font style=&quot;font-size: 9px;&quot;&gt;UserBalance -= UserBet&lt;/font&gt;" style="rounded=0;whiteSpace=wrap;html=1;fillColor=#fdfd9b;" vertex="1" parent="WIyWlLk6GJQsqaUBKTNV-1">
          <mxGeometry x="340" y="930" width="120" height="60" as="geometry" />
        </mxCell>
        <mxCell id="EgvkBxr_6u7k-jhzazxc-45" style="edgeStyle=orthogonalEdgeStyle;rounded=0;orthogonalLoop=1;jettySize=auto;html=1;entryX=0.5;entryY=0;entryDx=0;entryDy=0;" edge="1" parent="WIyWlLk6GJQsqaUBKTNV-1" source="EgvkBxr_6u7k-jhzazxc-42" target="EgvkBxr_6u7k-jhzazxc-44">
          <mxGeometry relative="1" as="geometry" />
        </mxCell>
        <mxCell id="EgvkBxr_6u7k-jhzazxc-46" value="True" style="edgeLabel;html=1;align=center;verticalAlign=middle;resizable=0;points=[];" vertex="1" connectable="0" parent="EgvkBxr_6u7k-jhzazxc-45">
          <mxGeometry x="-0.1413" y="3" relative="1" as="geometry">
            <mxPoint as="offset" />
          </mxGeometry>
        </mxCell>
        <mxCell id="EgvkBxr_6u7k-jhzazxc-52" style="edgeStyle=orthogonalEdgeStyle;rounded=0;orthogonalLoop=1;jettySize=auto;html=1;entryX=1;entryY=0.25;entryDx=0;entryDy=0;" edge="1" parent="WIyWlLk6GJQsqaUBKTNV-1" source="EgvkBxr_6u7k-jhzazxc-42" target="56kQNoIwS2oEXGWBTLzL-21">
          <mxGeometry relative="1" as="geometry">
            <mxPoint x="680" y="710" as="targetPoint" />
            <Array as="points">
              <mxPoint x="680" y="2060" />
              <mxPoint x="680" y="726" />
            </Array>
          </mxGeometry>
        </mxCell>
        <mxCell id="EgvkBxr_6u7k-jhzazxc-53" value="False" style="edgeLabel;html=1;align=center;verticalAlign=middle;resizable=0;points=[];" vertex="1" connectable="0" parent="EgvkBxr_6u7k-jhzazxc-52">
          <mxGeometry x="-0.9658" y="-2" relative="1" as="geometry">
            <mxPoint as="offset" />
          </mxGeometry>
        </mxCell>
        <mxCell id="EgvkBxr_6u7k-jhzazxc-42" value="&lt;div style=&quot;text-align: left;&quot;&gt;&lt;span style=&quot;background-color: transparent; color: light-dark(rgb(0, 0, 0), rgb(255, 255, 255));&quot;&gt;&lt;font style=&quot;font-size: 9px;&quot;&gt;BtnClose (click)&lt;/font&gt;&lt;/span&gt;&lt;/div&gt;" style="rhombus;whiteSpace=wrap;html=1;fillColor=#f6c3c3;" vertex="1" parent="WIyWlLk6GJQsqaUBKTNV-1">
          <mxGeometry x="188" y="2020" width="100" height="80" as="geometry" />
        </mxCell>
        <mxCell id="EgvkBxr_6u7k-jhzazxc-44" value="End" style="ellipse;whiteSpace=wrap;html=1;fillColor=#e5c2f5;" vertex="1" parent="WIyWlLk6GJQsqaUBKTNV-1">
          <mxGeometry x="178" y="2160" width="120" height="80" as="geometry" />
        </mxCell>
        <mxCell id="EgvkBxr_6u7k-jhzazxc-51" style="edgeStyle=orthogonalEdgeStyle;rounded=0;orthogonalLoop=1;jettySize=auto;html=1;entryX=0.551;entryY=-0.005;entryDx=0;entryDy=0;entryPerimeter=0;" edge="1" parent="WIyWlLk6GJQsqaUBKTNV-1" target="EgvkBxr_6u7k-jhzazxc-42">
          <mxGeometry relative="1" as="geometry">
            <mxPoint x="249.9978787878785" y="2020.000303030303" as="targetPoint" />
            <mxPoint x="401.9296969696975" y="1889.97" as="sourcePoint" />
            <Array as="points">
              <mxPoint x="402" y="1955" />
              <mxPoint x="403" y="1955" />
              <mxPoint x="403" y="2020" />
            </Array>
          </mxGeometry>
        </mxCell>
        <mxCell id="EgvkBxr_6u7k-jhzazxc-50" value="&lt;font style=&quot;font-size: 9px;&quot;&gt;&amp;nbsp;MessageBox.Show(&quot;Nem nyert.&quot;)&lt;/font&gt;" style="rounded=0;whiteSpace=wrap;html=1;fillColor=#fdfd9b;" vertex="1" parent="WIyWlLk6GJQsqaUBKTNV-1">
          <mxGeometry x="340" y="1830" width="120" height="60" as="geometry" />
        </mxCell>
      </root>
    </mxGraphModel>
  </diagram>
</mxfile>
